<?xml version="1.0" standalone="no"?>
<!DOCTYPE svg PUBLIC "-//W3C//DTD SVG 20010904//EN"
 "http://www.w3.org/TR/2001/REC-SVG-20010904/DTD/svg10.dtd">
<svg version="1.0" xmlns="http://www.w3.org/2000/svg"
 width="145.000000pt" height="48.000000pt" viewBox="0 0 145.000000 48.000000"
 preserveAspectRatio="xMidYMid meet">

<g transform="translate(0.000000,48.000000) scale(0.100000,-0.100000)"
fill="#000000" stroke="none">
<path d="M978 469 c-14 -8 -18 -23 -18 -64 0 -49 -3 -56 -27 -69 -20 -10 -35
-11 -53 -4 -14 5 -46 7 -72 4 -26 -3 -48 -1 -50 3 -2 4 -32 11 -67 14 -57 5
-64 3 -68 -14 -7 -25 -19 -24 -26 1 -4 15 -14 20 -41 20 l-36 0 0 55 c0 30 -4
55 -9 55 -5 0 -34 -11 -65 -25 -44 -19 -57 -30 -62 -52 -10 -46 -14 -56 -22
-49 -4 4 -14 -10 -23 -30 l-15 -38 -26 42 c-13 23 -28 39 -33 35 -7 -7 -5 3
10 40 11 26 -152 62 -208 46 -42 -11 -56 -27 -63 -71 -4 -25 1 -42 20 -70 14
-21 21 -38 16 -38 -23 0 -40 -34 -40 -79 l0 -48 48 -14 c76 -22 146 -18 176
10 23 21 26 22 32 7 4 -9 -2 -41 -13 -71 -23 -60 -19 -66 40 -64 l32 1 -27 10
c-33 11 -33 11 -13 69 l16 45 -46 83 c-25 46 -45 84 -43 86 10 8 48 25 57 25
5 0 23 -23 39 -51 31 -55 33 -54 51 4 13 38 28 45 62 27 16 -9 19 -7 19 14 0
13 -7 32 -16 40 -23 23 -9 49 35 67 38 16 39 16 45 -5 3 -11 6 -33 6 -48 0
-25 3 -28 35 -28 33 0 37 -4 57 -47 l20 -48 15 43 c14 40 17 42 53 42 21 0 41
-3 43 -7 3 -5 -12 -51 -33 -103 l-38 -95 -43 0 -43 0 -29 75 c-15 41 -29 75
-31 77 -1 1 0 -37 2 -86 l4 -88 -32 -7 c-18 -3 -35 -4 -37 -2 -2 2 -7 38 -11
81 l-7 78 -52 -127 c-35 -86 -47 -126 -38 -126 7 0 26 33 42 73 28 71 28 72
31 35 l3 -38 65 0 c63 0 64 0 64 28 1 23 2 24 11 10 7 -14 23 -18 63 -18 53 0
53 0 66 40 l13 39 27 -29 c25 -26 35 -30 82 -29 29 0 62 4 72 8 11 4 35 2 55
-5 23 -8 69 -10 135 -6 73 4 97 2 92 -6 -12 -20 129 -16 149 4 15 15 17 15 34
0 11 -10 35 -16 64 -16 44 0 47 2 47 27 0 15 -12 44 -26 65 l-27 38 27 38 c43
63 32 82 -14 24 -22 -27 -40 -54 -40 -59 0 -6 16 -31 35 -57 l36 -46 -44 0
c-35 0 -48 5 -61 23 l-16 22 -16 -23 c-13 -17 -26 -22 -61 -22 l-44 0 36 46
c19 26 35 51 35 56 0 6 -11 23 -24 38 l-23 28 -37 -43 c-41 -49 -48 -70 -12
-36 l23 22 17 -26 c20 -30 14 -43 -28 -60 -44 -18 -247 -19 -271 -1 -16 11
-24 11 -52 0 -50 -21 -90 -18 -118 11 -73 72 33 198 129 153 27 -14 36 -14 57
-3 13 8 32 16 42 19 14 4 17 17 17 64 0 56 1 59 33 75 l32 16 -30 0 c-16 0
-38 -4 -47 -10z m-776 -65 c45 -15 46 -16 36 -45 -13 -39 -18 -40 -64 -24 -45
16 -84 19 -84 6 0 -5 17 -19 38 -32 57 -34 90 -69 97 -101 9 -37 -15 -74 -52
-81 -31 -6 -163 20 -163 32 0 5 5 22 11 40 9 24 16 30 28 25 41 -17 100 -32
105 -27 12 12 5 21 -43 51 -78 48 -104 102 -70 145 17 23 28 27 68 27 26 0 68
-7 93 -16z m1038 -175 c0 -6 -4 -7 -10 -4 -5 3 -10 11 -10 16 0 6 5 7 10 4 6
-3 10 -11 10 -16z"/>
<path d="M1060 381 l0 -99 37 19 c42 22 66 24 94 8 19 -10 19 -9 9 10 -10 20
-8 21 32 21 34 0 47 -5 65 -27 l23 -28 23 28 c18 22 31 27 65 27 23 0 42 5 42
10 0 17 -92 12 -112 -7 -17 -15 -19 -15 -36 0 -14 13 -38 17 -91 17 -40 0 -70
-4 -67 -9 3 -5 -7 -11 -22 -14 -35 -7 -42 5 -42 81 0 34 -4 62 -10 62 -6 0
-10 -40 -10 -99z"/>
<path d="M953 264 c-6 -16 22 -53 32 -42 9 8 -6 58 -16 58 -5 0 -12 -7 -16
-16z"/>
<path d="M784 245 c-11 -29 2 -37 19 -11 15 23 16 26 2 26 -9 0 -18 -7 -21
-15z"/>
<path d="M1104 245 c-11 -29 2 -37 19 -11 15 23 16 26 2 26 -9 0 -18 -7 -21
-15z"/>
<path d="M850 225 c-13 -14 -21 -27 -18 -30 2 -3 15 6 28 20 13 14 21 27 18
30 -2 3 -15 -6 -28 -20z"/>
</g>
</svg>
